HIERARCHY
ROOT Hips
{
	OFFSET -14.338637 100.724503 -2.982331
	CHANNELS 6 Xposition Yposition Zposition Xrotation Yrotation Zrotation
	JOINT Chest
	{
		OFFSET 0.395646 13.301445 3.011504
		CHANNELS 3 Xrotation Yrotation Zrotation
		JOINT Chest2
		{
			OFFSET 4.112341 20.247383 5.674367
			CHANNELS 3 Xrotation Yrotation Zrotation
			JOINT Chest3
			{
				OFFSET 4.523842 14.052505 2.209478
				CHANNELS 3 Xrotation Yrotation Zrotation
				JOINT Neck
				{
					OFFSET 4.734061 16.149261 3.925043
					CHANNELS 3 Xrotation Yrotation Zrotation
					JOINT Head
					{
						OFFSET 2.953211 9.171768 4.121262
						CHANNELS 3 Xrotation Yrotation Zrotation
						End Site
						{
							OFFSET 2.984250 9.190063 4.057679
						}
					}
				}
				JOINT LeftCollar
				{
					OFFSET 6.264430 10.644882 7.017686
					CHANNELS 3 Xrotation Yrotation Zrotation
					JOINT LeftUpArm
					{
						OFFSET 15.929732 -6.691757 3.156478
						CHANNELS 3 Xrotation Yrotation Zrotation
						JOINT LeftLowArm
						{
							OFFSET -18.026968 -25.592041 12.641388
							CHANNELS 3 Xrotation Yrotation Zrotation
							JOINT LeftHand
							{
								OFFSET -22.054136 -15.833199 12.801264
								CHANNELS 3 Xrotation Yrotation Zrotation
								End Site
								{
									OFFSET -4.820059 -3.460442 2.797783
								}
							}
						}
					}
				}
				JOINT RightCollar
				{
					OFFSET -1.179303 13.486313 4.305471
					CHANNELS 3 Xrotation Yrotation Zrotation
					JOINT RightUpArm
					{
						OFFSET -14.605325 3.286682 -9.185782
						CHANNELS 3 Xrotation Yrotation Zrotation
						JOINT RightLowArm
						{
							OFFSET -10.498251 -30.078674 11.171204
							CHANNELS 3 Xrotation Yrotation Zrotation
							JOINT RightHand
							{
								OFFSET 5.527328 -22.491547 19.092785
								CHANNELS 3 Xrotation Yrotation Zrotation
								End Site
								{
									OFFSET 1.208054 -4.915749 4.172916
								}
							}
						}
					}
				}
			}
		}
	}
	JOINT LeftUpLeg
	{
		OFFSET 8.244978 -1.490044 5.497202
		CHANNELS 3 Xrotation Yrotation Zrotation
		JOINT LeftLowLeg
		{
			OFFSET 9.808283 -45.828213 6.896551
			CHANNELS 3 Xrotation Yrotation Zrotation
			JOINT LeftFoot
			{
				OFFSET 28.146282 27.196484 -21.649689
				CHANNELS 3 Xrotation Yrotation Zrotation
				JOINT LeftToe
				{
					OFFSET 18.794809 -5.427658 -13.298717
					CHANNELS 3 Xrotation Yrotation Zrotation
					End Site
					{
						OFFSET 13.865257 -18.383480 -5.418600
					}
				}
			}
		}
	}
	JOINT RightUpLeg
	{
		OFFSET -8.244988 1.489853 -5.497248
		CHANNELS 3 Xrotation Yrotation Zrotation
		JOINT RightLowLeg
		{
			OFFSET -0.793232 -47.317097 -2.115156
			CHANNELS 3 Xrotation Yrotation Zrotation
			JOINT RightFoot
			{
				OFFSET 15.071437 -38.024059 -18.099758
				CHANNELS 3 Xrotation Yrotation Zrotation
				JOINT RightToe
				{
					OFFSET -8.599118 -17.445747 13.463188
					CHANNELS 3 Xrotation Yrotation Zrotation
					End Site
					{
						OFFSET -15.031992 -3.551874 17.915903
					}
				}
			}
		}
	}
}
MOTION
Frames: 16
Frame Time: 0.033333
-0.976385 104.638321 -1.111712 -3.688361 31.432749 6.812446 -6.582629 -3.285286 10.436829 -0.777447 -1.455696 2.770598 1.468029 -5.751068 -1.982079 -12.199778 -3.730805 1.600805 0.000000 -0.000001 0.000001 12.524903 18.543270 -10.730837 18.606176 20.728419 25.705002 -0.662495 -9.554752 0.084045 -0.000003 0.000005 -0.000002 -6.995826 -18.020896 7.833077 17.824355 -25.303298 -13.891327 2.286487 0.246577 -13.609119 0.000001 -0.000003 0.000004 15.922899 0.492376 -9.641710 -60.103158 39.956026 -74.311707 -12.035357 -13.880738 -7.852680 0.000003 -0.000003 -0.000000 6.737921 -0.086031 -4.136227 -7.835631 -1.979775 -12.480768 11.487435 3.546187 8.817148 0.000000 -0.000000 -0.000001 
-0.973038 104.639259 -1.119600 -3.970372 31.553623 6.808990 -6.315254 -3.351222 10.580901 -0.125722 -1.735332 3.160808 0.764696 -5.345169 -2.338594 -12.269712 -3.819105 1.726379 0.000002 -0.000003 -0.000003 12.193582 17.370518 -10.449739 18.996759 20.819865 25.612485 -1.209670 -9.260300 -0.374128 -0.000003 0.000002 0.000002 -7.174004 -18.318583 7.663712 17.877124 -25.338422 -13.870615 2.603562 0.059450 -13.574545 0.000001 0.000000 -0.000001 16.205052 0.488217 -9.374974 -59.895964 39.960425 -74.479934 -12.116716 -13.850035 -7.925799 0.000004 -0.000003 -0.000001 6.951644 -0.062530 -4.082326 -8.003009 -1.829678 -12.360515 11.789181 2.894853 8.824297 0.000001 -0.000002 -0.000000 
-0.966393 104.632172 -1.121180 -4.199458 31.477238 6.792020 -5.889784 -3.439987 10.781250 0.306393 -1.864992 3.351130 0.208109 -5.269411 -2.535423 -11.932725 -3.858768 1.718007 0.000002 -0.000002 -0.000001 12.085610 17.002711 -10.402087 19.137650 20.792414 25.341385 -1.745186 -8.870679 -0.984382 -0.000001 0.000003 0.000001 -7.005967 -17.894197 7.749422 17.967414 -25.597783 -13.615914 2.204495 -0.116790 -13.687866 0.000003 0.000003 -0.000001 16.307049 0.470236 -9.370728 -59.408248 39.672047 -74.155350 -12.524744 -14.153965 -8.388751 0.000003 -0.000002 -0.000002 6.335618 0.042479 -4.617485 -6.280646 -1.824100 -11.069930 11.223379 3.002534 8.433138 0.000000 -0.000002 0.000002 
-0.950023 104.621964 -1.121912 -4.268630 31.603743 6.758478 -5.954914 -3.474852 10.855709 0.647968 -2.070290 3.644005 -0.108454 -5.358421 -2.831782 -11.912814 -3.769578 1.743761 0.000001 -0.000000 -0.000001 12.193699 17.240550 -10.495726 18.873028 20.182524 24.963185 -2.385419 -8.589497 -1.127384 -0.000004 0.000000 -0.000000 -6.757755 -17.549565 8.027494 18.186591 -25.811389 -13.345402 1.473549 -0.126171 -14.335532 -0.000000 0.000002 -0.000002 16.156280 0.462933 -9.426629 -59.024712 39.444855 -73.772696 -12.373982 -14.021681 -8.440264 0.000004 -0.000002 -0.000002 5.741634 0.154747 -5.170446 -4.963011 -1.871590 -9.879587 11.185315 2.922724 8.317257 -0.000001 -0.000000 -0.000000 
-0.942638 104.612045 -1.126790 -4.118794 31.751572 6.707080 -6.020808 -3.485401 10.836025 0.773833 -2.194571 3.822357 -0.433477 -5.544370 -3.102697 -11.544111 -3.872804 1.871003 0.000001 -0.000002 -0.000001 12.176737 17.213351 -10.410355 18.953353 19.971051 24.720259 -2.578715 -8.185365 -0.835922 0.000001 0.000002 0.000001 -6.811821 -17.696889 8.185806 18.085535 -25.610891 -13.331433 1.483938 -0.383024 -14.692003 -0.000002 0.000006 -0.000005 15.654570 0.443182 -9.607564 -58.409838 39.068368 -73.364571 -12.350689 -13.787504 -8.834555 0.000004 -0.000002 -0.000002 4.543028 0.350057 -5.966715 -3.456188 -1.802977 -8.648959 10.922512 2.543157 7.976747 -0.000002 -0.000000 -0.000001 
-0.932633 104.590431 -1.125389 -4.297483 31.712186 6.624751 -5.552939 -3.617678 11.183415 1.215871 -2.352241 4.031340 -1.004297 -5.322586 -3.367156 -11.265644 -4.053918 1.938542 0.000002 -0.000001 0.000001 12.032784 16.758687 -10.383262 19.327207 20.595602 24.785583 -3.067879 -7.709982 -1.399844 -0.000004 0.000000 0.000003 -7.147202 -18.126528 8.256038 18.059872 -26.105610 -13.322876 1.145854 -0.688030 -14.973518 0.000002 0.000002 -0.000002 15.575113 0.582837 -9.419617 -57.947803 39.051231 -73.077533 -12.020967 -13.303661 -8.969542 0.000003 -0.000004 0.000001 3.829054 0.411156 -6.734604 -1.999164 -1.838158 -7.122256 10.788342 2.551017 7.895441 0.000001 -0.000004 -0.000000 
-0.914798 104.553360 -1.128154 -5.026939 31.404377 6.765343 -5.116074 -3.638811 11.322560 1.534598 -2.435832 4.100549 -1.205453 -5.141538 -3.366335 -10.951800 -4.303993 1.832794 0.000002 0.000001 0.000002 12.057336 16.514593 -10.800785 19.767742 21.551803 24.907320 -2.545636 -6.742255 -0.191451 -0.000001 0.000003 0.000004 -7.677740 -18.569218 8.298874 18.235992 -27.407976 -13.192767 1.284947 -1.612952 -15.726275 0.000002 0.000002 -0.000002 16.067813 0.664320 -9.167241 -57.289824 39.092451 -73.016949 -12.081844 -13.162859 -9.275138 0.000003 -0.000003 -0.000001 2.276986 0.790113 -8.597495 1.484110 -1.443888 -3.875386 11.391225 2.551084 8.265385 -0.000001 -0.000004 -0.000002 
-0.900410 104.508766 -1.125493 -5.744258 31.502123 6.913373 -4.470081 -3.776596 11.716391 1.110637 -2.340692 3.889079 -1.085245 -5.586315 -3.466320 -10.502892 -4.481602 1.771190 0.000001 0.000000 -0.000002 12.293792 16.646098 -11.334918 19.659767 22.139433 25.065220 -2.933962 -5.874875 -0.341488 0.000001 0.000003 -0.000003 -7.860872 -18.516680 8.611590 18.085861 -28.147703 -13.389167 0.917220 -2.143510 -16.033082 -0.000003 0.000000 -0.000001 16.559915 0.749435 -8.923416 -56.763711 38.923209 -72.772619 -12.015583 -12.885018 -9.630531 0.000003 -0.000008 -0.000003 1.343553 1.066157 -10.039048 4.773212 -0.986308 -0.676456 12.124195 2.553732 8.660036 -0.000001 -0.000000 0.000000 
-0.893834 104.457504 -1.123278 -6.275810 31.379125 6.988778 -4.440902 -3.797575 11.835180 1.320093 -2.423639 3.970679 -1.181360 -5.472045 -3.552838 -9.979874 -4.619535 1.701922 0.000001 -0.000001 0.000001 12.590269 16.068268 -11.892935 19.859169 22.932615 25.337579 -3.369160 -4.124257 0.581740 -0.000000 0.000001 -0.000000 -7.918477 -18.327100 8.971860 18.086530 -28.795275 -13.647063 0.421910 -3.181996 -17.164704 -0.000003 0.000004 -0.000003 16.925987 0.815186 -8.702065 -56.388399 38.994226 -72.923471 -12.259954 -13.013387 -10.017859 0.000005 0.000002 -0.000003 1.404712 1.182072 -11.142251 6.392041 -0.854282 1.976164 12.540676 2.288117 8.507314 0.000000 -0.000002 0.000001 
-0.919035 104.427406 -1.123158 -7.317196 30.814665 6.793439 -3.457219 -4.030643 12.437539 1.691757 -2.410168 3.990769 -1.449120 -4.720817 -3.405029 -9.486385 -4.663969 1.790230 0.000002 -0.000002 -0.000001 12.967261 16.619250 -12.540831 19.416648 23.241662 25.582205 -4.155735 -2.364915 0.883911 0.000001 0.000003 -0.000002 -8.218335 -18.497839 9.447140 17.396727 -28.652944 -14.618475 -0.868355 -3.903504 -18.021101 0.000001 0.000005 -0.000002 17.195783 0.799060 -8.291054 -55.884065 39.031218 -73.026443 -12.987665 -13.844640 -10.116098 0.000003 -0.000003 -0.000000 1.719205 1.164600 -11.413891 7.246548 -0.718948 3.667170 12.294999 0.314033 7.381723 0.000001 0.000005 -0.000001 
-0.954844 104.406342 -1.123455 -7.568464 30.539610 6.841833 -3.117488 -4.010282 12.415352 1.515204 -2.402798 3.922780 -1.297244 -4.957900 -3.302211 -9.226242 -4.425125 1.577817 0.000001 -0.000002 -0.000001 12.992535 18.011009 -13.131557 18.860688 23.602060 25.457128 -3.832218 -1.053227 0.790085 -0.000003 0.000000 0.000003 -8.435241 -17.852347 9.642491 16.716599 -29.018612 -15.085630 -1.578844 -5.030712 -18.381767 0.000002 0.000002 -0.000002 16.927323 0.603754 -8.489194 -55.605786 38.866051 -72.767975 -13.556477 -14.328301 -10.564758 0.000003 0.000002 -0.000003 1.758068 1.263041 -11.887201 7.421852 -0.709285 4.814851 13.106581 -2.918213 6.469737 0.000001 -0.000004 0.000002 
-1.052246 104.423477 -1.113782 -8.273959 30.131465 6.716399 -1.900826 -4.129084 12.742602 0.550230 -2.143248 3.531735 -0.891630 -5.283214 -3.041854 -8.541054 -4.098153 1.603631 0.000001 -0.000001 0.000001 12.686038 16.948587 -12.881061 17.996625 23.189452 25.572486 -5.703294 0.914417 0.116545 0.000001 0.000003 -0.000001 -8.186833 -17.287019 10.169049 15.845791 -28.335573 -16.374304 -1.258546 -6.372795 -19.512580 0.000006 0.000003 -0.000001 16.954961 0.555400 -8.076688 -55.116529 38.691714 -73.038225 -14.242030 -15.027395 -10.625274 0.000003 -0.000002 -0.000002 1.675387 1.275338 -11.516524 7.754241 -0.356538 5.356369 13.590914 -6.445977 5.303808 0.000001 0.000003 0.000001 
-1.210166 104.472466 -1.097938 -8.280555 29.521085 6.486383 -0.532385 -4.245354 13.139096 -1.204094 -1.485087 2.550053 0.283158 -5.487274 -2.269255 -8.273156 -4.047431 1.411254 0.000002 -0.000002 -0.000001 11.689990 15.764644 -12.120901 17.187507 23.107414 25.046876 -6.217021 3.096216 -0.070550 -0.000000 0.000000 -0.000000 -8.387129 -16.674797 10.111297 14.363374 -27.592007 -17.598124 -1.474199 -8.097995 -19.913031 0.000004 -0.000001 -0.000001 16.178526 0.443433 -8.073182 -54.288116 37.944440 -72.619555 -14.970936 -15.591228 -10.958153 0.000003 -0.000003 -0.000000 2.159385 1.030709 -10.204756 6.039657 -0.718896 4.041616 13.363117 -8.814958 4.039162 0.000000 -0.000000 -0.000000 
-1.394939 104.531891 -1.083897 -8.893842 29.025814 6.325127 0.304341 -4.294724 13.352675 -2.084084 -1.113121 2.018004 0.758580 -5.520729 -1.923883 -7.675310 -3.907964 1.409125 0.000001 -0.000001 0.000001 11.233524 15.328676 -11.651932 16.531057 23.577335 25.424172 -6.249455 4.180905 -0.297060 -0.000005 -0.000002 -0.000002 -8.515008 -16.575518 10.014295 13.657771 -27.483915 -18.514181 -1.300325 -9.195433 -20.300825 -0.000001 0.000005 -0.000002 16.182030 0.487726 -7.670532 -53.608878 37.455665 -72.541923 -15.588174 -15.885258 -11.392241 0.000002 -0.000004 0.000001 3.193447 0.713578 -8.752305 4.200414 -0.855155 2.711004 12.859311 -10.350113 3.048524 0.000002 -0.000000 0.000001 
-1.633212 104.615417 -1.072910 -9.283832 28.233434 6.385479 1.420159 -4.327096 13.531478 -2.686502 -0.726436 1.591959 0.909233 -5.438539 -1.944926 -6.962302 -3.687940 1.575386 0.000000 0.000001 0.000002 10.494741 14.762252 -11.358272 15.186063 24.036979 25.768103 -6.269884 5.852190 -0.842679 -0.000001 -0.000002 -0.000001 -8.498420 -15.490247 9.612973 12.444918 -27.403419 -19.382253 -1.996311 -10.608763 -19.991786 0.000002 0.000000 -0.000000 15.595719 0.177711 -7.830324 -52.778979 36.925550 -72.391338 -16.162719 -16.560238 -11.284205 0.000002 -0.000001 0.000002 4.324390 0.566565 -7.572708 2.135476 -0.945296 1.304744 12.537338 -11.678145 2.653364 0.000001 -0.000002 0.000001 
-1.931169 104.718674 -1.069556 -9.330357 27.054659 6.552008 1.717505 -4.163786 13.021360 -2.108153 -0.540193 1.356690 0.310267 -5.258327 -1.898509 -6.621280 -2.942256 1.362302 0.000002 -0.000001 -0.000001 10.374884 16.412081 -11.596671 12.827136 24.335266 26.115988 -5.399594 6.490557 -1.963493 0.000003 0.000003 0.000001 -8.643389 -14.605477 9.186884 10.545656 -27.170720 -20.710228 -1.379187 -12.672243 -19.749323 0.000001 0.000003 -0.000001 14.928149 0.093197 -8.005296 -52.685962 36.861609 -72.646261 -15.663963 -16.538804 -10.052007 0.000006 0.000001 -0.000001 5.987833 0.226289 -6.462947 -0.696282 -1.153489 -1.167035 11.818032 -9.982306 3.282229 -0.000001 0.000005 -0.000001 
